<svg xmlns="http://www.w3.org/2000/svg" xmlns:xlink="http://www.w3.org/1999/xlink" width="500" zoomAndPan="magnify" viewBox="0 0 375 374.999991" height="500" preserveAspectRatio="xMidYMid meet" version="1.0"><defs><clipPath id="44d56f7bab"><path d="M 44 46.125 L 331 46.125 L 331 328.875 L 44 328.875 Z M 44 46.125 " clip-rule="nonzero"/></clipPath></defs><g clip-path="url(#44d56f7bab)"><path fill="#000000" d="M 166.355469 46.214844 C 132.140625 46.214844 103.539062 70.140625 96.363281 102.1875 C 79.363281 107.21875 64.179688 118.578125 54.605469 135.164062 C 54.601562 135.171875 54.601562 135.179688 54.597656 135.183594 C 37.503906 164.816406 43.921875 201.542969 68.078125 223.78125 C 63.933594 241.019531 66.179688 259.847656 75.753906 276.433594 C 92.859375 306.070312 127.878906 318.882812 159.21875 309.074219 C 172.070312 321.28125 189.496094 328.753906 208.644531 328.753906 C 242.859375 328.753906 271.460938 304.828125 278.636719 272.777344 C 295.636719 267.75 310.820312 256.390625 320.398438 239.800781 C 320.402344 239.789062 320.40625 239.777344 320.410156 239.765625 C 337.492188 210.132812 331.074219 173.421875 306.921875 151.1875 C 311.066406 133.949219 308.820312 115.121094 299.246094 98.535156 C 282.140625 68.898438 247.125 56.085938 215.785156 65.894531 C 202.929688 53.683594 185.503906 46.214844 166.355469 46.214844 Z M 166.355469 59.167969 C 179.847656 59.167969 192.128906 63.671875 201.996094 71.203125 L 141.402344 106.8125 C 140.707031 107.285156 140.128906 107.875 139.660156 108.574219 C 138.742188 109.691406 138.253906 110.96875 138.191406 112.414062 L 138.199219 162.761719 C 138.203125 162.773438 138.203125 162.78125 138.207031 162.792969 L 138.207031 200.988281 L 107.5625 183.292969 L 107.5625 117.933594 C 107.5625 85.25 133.675781 59.167969 166.355469 59.167969 Z M 235.617188 75.519531 C 256.4375 74.9375 276.792969 85.546875 288.027344 105.011719 C 294.773438 116.695312 297.011719 129.585938 295.425781 141.898438 L 234.300781 107.21875 C 233.539062 106.851562 232.738281 106.640625 231.890625 106.589844 C 230.46875 106.355469 229.121094 106.574219 227.84375 107.242188 L 184.253906 132.421875 C 184.246094 132.425781 184.242188 132.433594 184.238281 132.4375 L 151.160156 151.539062 L 151.160156 116.144531 L 207.753906 83.464844 C 216.59375 78.359375 226.15625 75.78125 235.617188 75.519531 Z M 94.0625 116.789062 L 94.601562 187.078125 C 94.660156 187.964844 94.890625 188.800781 95.289062 189.59375 C 95.8125 190.890625 96.664062 191.910156 97.847656 192.65625 L 141.445312 217.824219 C 141.457031 217.828125 141.464844 217.832031 141.472656 217.832031 L 174.550781 236.933594 L 143.902344 254.632812 L 87.3125 221.953125 C 59.011719 205.609375 49.488281 169.949219 65.828125 141.640625 C 65.832031 141.632812 65.832031 141.628906 65.835938 141.621094 C 72.582031 129.945312 82.617188 121.566406 94.0625 116.789062 Z M 231.097656 120.335938 L 287.6875 153.015625 C 315.988281 169.355469 325.511719 205.015625 309.171875 233.328125 C 309.171875 233.332031 309.167969 233.335938 309.167969 233.339844 C 302.421875 245.019531 292.386719 253.402344 280.9375 258.179688 L 280.398438 187.890625 C 280.339844 187.003906 280.109375 186.167969 279.710938 185.375 C 279.1875 184.078125 278.335938 183.054688 277.152344 182.308594 L 233.554688 157.140625 C 233.542969 157.140625 233.535156 157.136719 233.527344 157.132812 L 200.449219 138.035156 Z M 187.5 145.511719 L 223.839844 166.496094 L 223.839844 208.46875 L 187.5 229.453125 L 151.160156 208.46875 L 151.160156 166.496094 Z M 236.792969 173.976562 L 267.4375 191.675781 L 267.4375 257.035156 C 267.4375 289.71875 241.324219 315.800781 208.644531 315.800781 C 195.152344 315.800781 182.871094 311.292969 173.003906 303.765625 L 233.597656 268.15625 C 233.605469 268.144531 233.613281 268.136719 233.625 268.125 C 234.59375 267.550781 235.359375 266.777344 235.921875 265.804688 C 235.929688 265.789062 235.933594 265.777344 235.941406 265.765625 C 236.515625 264.773438 236.804688 263.699219 236.808594 262.550781 L 236.800781 212.203125 C 236.796875 212.195312 236.792969 212.1875 236.792969 212.175781 Z M 223.839844 223.429688 L 223.839844 258.824219 L 167.246094 291.503906 C 138.949219 307.84375 103.3125 298.265625 86.972656 269.957031 C 80.226562 258.269531 77.988281 245.378906 79.574219 233.070312 L 140.699219 267.746094 C 141.460938 268.117188 142.261719 268.324219 143.109375 268.378906 C 144.53125 268.613281 145.878906 268.394531 147.15625 267.726562 L 190.746094 242.546875 C 190.757812 242.535156 190.769531 242.527344 190.78125 242.519531 Z M 223.839844 223.429688 " fill-opacity="1" fill-rule="nonzero"/></g></svg>